<svg width="579" height="37" viewBox="0 0 579 37" fill="none" xmlns="http://www.w3.org/2000/svg">
<path d="M0.00170546 21.1473C-0.0180041 20.7012 0.133719 20.2644 0.425812 19.9266C0.717905 19.5887 1.12817 19.3755 1.57249 19.3306C121.038 7.10544 241.842 1.64165 362.004 0.275712C433.593 -0.243346 506.535 4.68769 577.209 16.3119C577.725 16.4009 578.191 16.6745 578.52 17.0816C578.849 17.4887 579.019 18.0015 578.998 18.5247C578.988 18.7469 578.89 18.956 578.726 19.1069C578.563 19.2577 578.346 19.3381 578.124 19.3306C385.826 15.5196 193.256 9.3319 1.12179 22.2127C0.981418 22.222 0.840577 22.2029 0.707688 22.1568C0.574799 22.1106 0.452546 22.0383 0.34811 21.944C0.243675 21.8498 0.159168 21.7356 0.099666 21.6081C0.0401643 21.4807 0.00688315 21.3425 0.00170546 21.202V21.1473Z" fill="#45EBA5"/>
<path d="M74.1047 34.4242C134.056 27.253 194.936 24.8626 255.174 29.9576C257.141 30.1215 258.657 31.6787 254.56 31.706C195.155 32.0202 133.933 33.7139 74.5418 36.0906C70.7854 36.2272 72.3836 34.6154 74.1047 34.4242Z" fill="#45EBA5"/>
<path d="M265.336 28.9603C269.643 28.4344 273.999 28.462 278.299 29.0423C278.505 28.9711 278.724 28.9501 278.94 28.9811C279.155 29.0121 279.36 29.0941 279.538 29.2204C279.715 29.3468 279.86 29.5136 279.96 29.7072C280.059 29.9007 280.112 30.1154 280.112 30.3331C280.112 30.5509 280.059 30.7655 279.96 30.9591C279.86 31.1526 279.715 31.3195 279.538 31.4458C279.36 31.5721 279.155 31.6541 278.94 31.6851C278.724 31.7161 278.505 31.6952 278.299 31.6239C274.036 31.9176 269.758 31.8902 265.5 31.542C265.299 31.6247 265.082 31.6583 264.865 31.6401C264.649 31.6219 264.44 31.5525 264.256 31.4375C264.072 31.3225 263.918 31.1652 263.807 30.9788C263.695 30.7924 263.63 30.5822 263.616 30.3655C263.603 30.1489 263.641 29.9321 263.728 29.7331C263.814 29.5341 263.947 29.3586 264.115 29.2213C264.283 29.0839 264.482 28.9886 264.694 28.9432C264.906 28.8979 265.126 28.9037 265.336 28.9603Z" fill="#45EBA5"/>
</svg>
